<svg width="142" height="70" viewBox="0 0 142 70" fill="none" xmlns="http://www.w3.org/2000/svg">
<path d="M10.0284 2.43528H0.835697V0.839861H21.0444V2.43528H11.8517V28H10.0284V2.43528ZM44.3967 28V15.5405H27.2649V28H25.5175V3.34695H27.2649V13.9831H44.3967V3.34695H46.144V28H44.3967ZM55.2684 28V3.34695H57.0158V28H55.2684ZM67.3531 19.4531L63.8204 28H62.035L72.3673 3.19501H73.3929L83.8011 28H81.8638L78.2931 19.4531H67.3531ZM72.7851 6.00598C72.4053 7.14557 72.0634 8.09523 71.7595 8.85495L67.9609 17.9716H77.6854L73.9247 8.89294C73.3423 7.47479 72.9624 6.51247 72.7851 6.00598ZM98.6523 4.52452C95.8413 4.52452 93.4735 5.6008 91.5488 7.75335C89.6495 9.88058 88.6999 12.5016 88.6999 15.6165C88.6999 18.7314 89.7761 21.3777 91.9287 23.5556C94.0813 25.7082 96.6137 26.7844 99.5259 26.7844C102.464 26.7844 104.743 26.4426 106.363 25.7588V15.6165H108.111V26.5565C106.136 27.7721 103.337 28.3799 99.7159 28.3799C96.0945 28.3799 93.043 27.1516 90.5612 24.6952C88.0794 22.2388 86.8385 19.2252 86.8385 15.6545C86.8385 12.0585 87.9528 9.04488 90.1813 6.61377C92.4352 4.18265 95.3348 2.96709 98.8802 2.96709C101.742 2.96709 104.54 3.41026 107.275 4.29661L106.819 5.74008C104.186 4.92971 101.463 4.52452 98.6523 4.52452ZM127.305 28.3799C123.784 28.3799 120.834 27.1516 118.454 24.6952C116.073 22.2388 114.883 19.2378 114.883 15.6925C114.883 12.1218 116.073 9.10819 118.454 6.65175C120.834 4.19531 123.784 2.96709 127.305 2.96709C130.825 2.96709 133.775 4.19531 136.155 6.65175C138.536 9.10819 139.726 12.1218 139.726 15.6925C139.726 19.2378 138.536 22.2388 136.155 24.6952C133.775 27.1516 130.825 28.3799 127.305 28.3799ZM127.305 4.52452C124.266 4.52452 121.733 5.6008 119.707 7.75335C117.707 9.9059 116.706 12.5523 116.706 15.6925C116.706 18.8073 117.707 21.441 119.707 23.5936C121.733 25.7208 124.266 26.7844 127.305 26.7844C130.369 26.7844 132.901 25.7208 134.902 23.5936C136.902 21.441 137.903 18.8073 137.903 15.6925C137.903 12.5523 136.902 9.9059 134.902 7.75335C132.901 5.6008 130.369 4.52452 127.305 4.52452ZM17.8535 67.5945H16.8279L8.88877 48.3735C8.43294 47.3099 8.06574 46.3729 7.78717 45.5625L7.40731 48.4495L4.29244 69H2.43112L6.91349 41.6119H7.9771L16.448 61.7446C16.8785 62.6816 17.2204 63.568 17.4737 64.4037C17.5496 64.1251 17.9422 63.2514 18.6512 61.7826L28.1098 41.6119H29.1354L33.2759 69H31.3766L28.4137 48.3735C28.2111 47.082 28.1098 46.107 28.1098 45.4486C28.0845 45.4739 28.0212 45.6005 27.9199 45.8284C27.8439 46.031 27.6919 46.3855 27.464 46.892C27.2614 47.3732 27.0462 47.8797 26.8183 48.4115L17.8535 67.5945ZM51.1837 69.3799C47.6637 69.3799 44.7134 68.1516 42.333 65.6952C39.9525 63.2388 38.7623 60.2378 38.7623 56.6925C38.7623 53.1218 39.9525 50.1082 42.333 47.6518C44.7134 45.1953 47.6637 43.9671 51.1837 43.9671C54.7038 43.9671 57.6541 45.1953 60.0345 47.6518C62.415 50.1082 63.6052 53.1218 63.6052 56.6925C63.6052 60.2378 62.415 63.2388 60.0345 65.6952C57.6541 68.1516 54.7038 69.3799 51.1837 69.3799ZM51.1837 45.5245C48.1448 45.5245 45.6124 46.6008 43.5865 48.7534C41.5859 50.9059 40.5856 53.5523 40.5856 56.6925C40.5856 59.8073 41.5859 62.441 43.5865 64.5936C45.6124 66.7208 48.1448 67.7844 51.1837 67.7844C54.248 67.7844 56.7804 66.7208 58.781 64.5936C60.7816 62.441 61.7819 59.8073 61.7819 56.6925C61.7819 53.5523 60.7816 50.9059 58.781 48.7534C56.7804 46.6008 54.248 45.5245 51.1837 45.5245ZM88.7693 66.4549C87.0979 68.4049 84.5528 69.3799 81.1341 69.3799C77.7153 69.3799 75.1702 68.4049 73.4989 66.4549C71.8275 64.505 70.9918 61.8079 70.9918 58.3639V44.347H72.7391V58.3639C72.7391 64.6696 75.5374 67.8224 81.1341 67.8224C86.7307 67.8224 89.529 64.6696 89.529 58.3639V44.347H91.2764V58.3639C91.2764 61.8079 90.4407 64.505 88.7693 66.4549ZM100.154 69V44.4609C102.332 44.2836 104.181 44.195 105.7 44.195C108.03 44.195 109.955 44.8028 111.474 46.0183C112.994 47.2086 113.754 48.918 113.754 51.1465C113.754 52.6406 113.323 54.0208 112.462 55.287C111.601 56.5532 110.626 57.5788 109.537 58.3639C112.551 62.3651 114.412 64.7582 115.121 65.5433C116.565 67.0374 118.135 67.8857 119.831 68.0883L119.793 69.2659C118.375 69.2406 117.223 69.038 116.337 68.6581C115.45 68.2529 114.564 67.5818 113.678 66.6449C112.817 65.7079 110.905 63.1881 107.942 59.0856C105.89 59.0856 103.877 59.0223 101.902 58.8957V69H100.154ZM106.992 57.6421C107.98 57.6421 109.043 56.9837 110.183 55.6668C111.322 54.35 111.892 52.8179 111.892 51.0705C111.892 49.3231 111.297 47.9936 110.107 47.082C108.917 46.1703 107.372 45.7145 105.473 45.7145C104.46 45.7145 103.269 45.7651 101.902 45.8664V57.4522C103.725 57.5788 105.422 57.6421 106.992 57.6421ZM125.408 60.4531L121.875 69H120.09L130.422 44.195H131.448L141.856 69H139.919L136.348 60.4531H125.408ZM130.84 47.006C130.46 48.1456 130.118 49.0952 129.815 49.855L126.016 58.9716H135.74L131.98 49.8929C131.397 48.4748 131.017 47.5125 130.84 47.006Z" fill="#F3F3F3"/>
</svg>
