<svg width="42" height="41" viewBox="0 0 42 41" fill="none" xmlns="http://www.w3.org/2000/svg">
<path d="M3.0625 15.5458C3.0625 11.0012 3.0625 8.72894 3.94694 6.99314C4.72491 5.46628 5.96628 4.22491 7.49314 3.44694C9.22894 2.5625 11.5012 2.5625 16.0458 2.5625H25.9542C30.4988 2.5625 32.7711 2.5625 34.5069 3.44694C36.0337 4.22491 37.2751 5.46628 38.0531 6.99314C38.9375 8.72894 38.9375 11.0012 38.9375 15.5458V25.4542C38.9375 29.9988 38.9375 32.2711 38.0531 34.0069C37.2751 35.5337 36.0337 36.7751 34.5069 37.5531C32.7711 38.4375 30.4988 38.4375 25.9542 38.4375H16.0458C11.5012 38.4375 9.22894 38.4375 7.49314 37.5531C5.96628 36.7751 4.72491 35.5337 3.94694 34.0069C3.0625 32.2711 3.0625 29.9988 3.0625 25.4542V15.5458Z" fill="#470137"/>
<path d="M21.8283 13.1121L17.352 20.6898L22.1411 28.7366C22.2407 28.919 22.1411 28.9593 21.9968 28.9593H18.5794C18.3387 28.9593 18.1702 28.9506 18.074 28.7859C17.7528 28.1442 17.4319 27.5065 17.1113 26.873C16.7902 26.2397 16.4492 25.5938 16.0885 24.9353C15.7275 24.2774 15.3706 23.6109 15.0176 22.936C14.6964 23.5943 14.3394 24.2526 13.9947 24.9107C13.6496 25.569 13.3087 26.2231 12.972 26.873C12.635 27.5232 12.2901 28.1691 11.9371 28.8106C11.8728 28.9587 11.7604 28.974 11.6002 28.974H8.30315C8.1736 28.974 8.15797 28.8766 8.23096 28.7612L12.8757 20.9366L8.35125 13.0874C8.26906 12.9754 8.33979 12.856 8.4716 12.8652H11.8649C12.0118 12.8569 12.1417 12.9124 12.2259 13.038C12.5147 13.6963 12.8356 14.3546 13.1885 15.0127C13.5413 15.671 13.8983 16.321 14.2595 16.9626C14.6205 17.6044 14.9775 18.2544 15.2823 18.9126C15.603 18.2381 15.9279 17.5799 16.257 16.938C16.5857 16.2962 16.9226 15.6503 17.2677 15.0003C17.6126 14.3505 17.9455 13.7046 18.2665 13.0627C18.3091 12.9219 18.4111 12.8505 18.5553 12.8652H21.7079C21.8283 12.8652 21.8781 13.0295 21.8283 13.1121Z" fill="#FF61F6"/>
<path d="M28.7351 29.2798C26.6127 29.3129 24.3896 28.4391 23.2721 26.5029C22.7264 25.5734 22.4537 24.4092 22.4538 23.0102C22.4448 21.8774 22.727 20.7621 23.2721 19.7767C24.6785 17.2627 27.5118 16.3208 30.2031 16.5679V11.7053C30.2031 11.5904 30.2513 11.5325 30.3475 11.5325H33.3798C33.4627 11.5204 33.5361 11.5956 33.5243 11.6806V26.2684C33.5243 26.8703 33.5839 27.4701 33.6205 28.0703C33.6264 28.1728 33.5671 28.2742 33.4761 28.3171C31.9778 28.958 30.3567 29.2724 28.7351 29.2798ZM30.2031 26.219V19.4805C28.005 18.8698 25.8709 20.5441 25.8712 22.8621C25.819 25.2587 27.8849 26.9144 30.2031 26.219Z" fill="#FF61F6"/>
</svg>
