<svg width="27" height="36" viewBox="0 0 27 36" fill="none" xmlns="http://www.w3.org/2000/svg">
<mask id="mask0_154_1081" style="mask-type:alpha" maskUnits="userSpaceOnUse" x="0" y="0" width="27" height="36">
<path d="M16.2692 0H2.44039C1.09817 0 0 1.10454 0 2.45455V33.5454C0 34.8955 1.09817 36 2.44039 36H23.5904C24.9326 36 26.0308 34.8955 26.0308 33.5454V9.81817L16.2692 0Z" fill="white"/>
</mask>
<g mask="url(#mask0_154_1081)">
<path d="M16.2692 0H2.44039C1.09817 0 0 1.10454 0 2.45455V33.5454C0 34.8955 1.09817 36 2.44039 36H23.5904C24.9326 36 26.0308 34.8955 26.0308 33.5454V9.81817L20.3365 5.72728L16.2692 0Z" fill="#4285F4"/>
</g>
<mask id="mask1_154_1081" style="mask-type:alpha" maskUnits="userSpaceOnUse" x="0" y="0" width="27" height="36">
<path d="M16.2692 0H2.44039C1.09817 0 0 1.10454 0 2.45455V33.5454C0 34.8955 1.09817 36 2.44039 36H23.5904C24.9326 36 26.0308 34.8955 26.0308 33.5454V9.81817L16.2692 0Z" fill="white"/>
</mask>
<g mask="url(#mask1_154_1081)">
<path d="M16.9834 9.10022L26.0311 18.1984V9.81817L16.9834 9.10022Z" fill="url(#paint0_linear_154_1081)"/>
</g>
<mask id="mask2_154_1081" style="mask-type:alpha" maskUnits="userSpaceOnUse" x="0" y="0" width="27" height="36">
<path d="M16.2692 0H2.44039C1.09817 0 0 1.10454 0 2.45455V33.5454C0 34.8955 1.09817 36 2.44039 36H23.5904C24.9326 36 26.0308 34.8955 26.0308 33.5454V9.81817L16.2692 0Z" fill="white"/>
</mask>
<g mask="url(#mask2_154_1081)">
<path d="M6.50684 26.1818H19.5222V24.5454H6.50684V26.1818ZM6.50684 29.4546H16.2684V27.8182H6.50684V29.4546ZM6.50684 18V19.6364H19.5222V18H6.50684ZM6.50684 22.9091H19.5222V21.2727H6.50684V22.9091Z" fill="#F1F1F1"/>
</g>
<mask id="mask3_154_1081" style="mask-type:alpha" maskUnits="userSpaceOnUse" x="0" y="0" width="27" height="36">
<path d="M16.2692 0H2.44039C1.09817 0 0 1.10454 0 2.45455V33.5454C0 34.8955 1.09817 36 2.44039 36H23.5904C24.9326 36 26.0308 34.8955 26.0308 33.5454V9.81817L16.2692 0Z" fill="white"/>
</mask>
<g mask="url(#mask3_154_1081)">
<path d="M16.2695 0V7.36362C16.2695 8.71978 17.3616 9.81817 18.7099 9.81817H26.0311L16.2695 0Z" fill="#A1C2FA"/>
</g>
<mask id="mask4_154_1081" style="mask-type:alpha" maskUnits="userSpaceOnUse" x="0" y="0" width="27" height="36">
<path d="M16.2692 0H2.44039C1.09817 0 0 1.10454 0 2.45455V33.5454C0 34.8955 1.09817 36 2.44039 36H23.5904C24.9326 36 26.0308 34.8955 26.0308 33.5454V9.81817L16.2692 0Z" fill="white"/>
</mask>
<g mask="url(#mask4_154_1081)">
<path d="M2.44039 0C1.09817 0 0 1.10454 0 2.45454V2.65909C0 1.30909 1.09817 0.204546 2.44039 0.204546H16.2692V0H2.44039Z" fill="white" fill-opacity="0.2"/>
</g>
<mask id="mask5_154_1081" style="mask-type:alpha" maskUnits="userSpaceOnUse" x="0" y="0" width="27" height="36">
<path d="M16.2692 0H2.44039C1.09817 0 0 1.10454 0 2.45455V33.5454C0 34.8955 1.09817 36 2.44039 36H23.5904C24.9326 36 26.0308 34.8955 26.0308 33.5454V9.81817L16.2692 0Z" fill="white"/>
</mask>
<g mask="url(#mask5_154_1081)">
<path d="M23.5904 35.7953H2.44039C1.09817 35.7953 0 34.6908 0 33.3408V33.5453C0 34.8953 1.09817 35.9999 2.44039 35.9999H23.5904C24.9326 35.9999 26.0308 34.8953 26.0308 33.5453V33.3408C26.0308 34.6908 24.9326 35.7953 23.5904 35.7953Z" fill="#1A237E" fill-opacity="0.2"/>
</g>
<mask id="mask6_154_1081" style="mask-type:alpha" maskUnits="userSpaceOnUse" x="0" y="0" width="27" height="36">
<path d="M16.2692 0H2.44039C1.09817 0 0 1.10454 0 2.45455V33.5454C0 34.8955 1.09817 36 2.44039 36H23.5904C24.9326 36 26.0308 34.8955 26.0308 33.5454V9.81817L16.2692 0Z" fill="white"/>
</mask>
<g mask="url(#mask6_154_1081)">
<path d="M18.7099 9.81844C17.3616 9.81844 16.2695 8.72005 16.2695 7.36389V7.56844C16.2695 8.9246 17.3616 10.023 18.7099 10.023H26.0311V9.81844H18.7099Z" fill="#1A237E" fill-opacity="0.1"/>
<path d="M16.2692 0H2.44039C1.09817 0 0 1.10454 0 2.45455V33.5454C0 34.8955 1.09817 36 2.44039 36H23.5904C24.9326 36 26.0308 34.8955 26.0308 33.5454V9.81817L16.2692 0Z" fill="url(#paint1_radial_154_1081)"/>
</g>
<defs>
<linearGradient id="paint0_linear_154_1081" x1="21.5078" y1="9.88142" x2="21.5078" y2="18.1997" gradientUnits="userSpaceOnUse">
<stop stop-color="#1A237E" stop-opacity="0.2"/>
<stop offset="1" stop-color="#1A237E" stop-opacity="0.02"/>
</linearGradient>
<radialGradient id="paint1_radial_154_1081" cx="0" cy="0" r="1" gradientUnits="userSpaceOnUse" gradientTransform="translate(0.824667 0.711541) scale(41.9742 41.9742)">
<stop stop-color="white" stop-opacity="0.1"/>
<stop offset="1" stop-color="white" stop-opacity="0"/>
</radialGradient>
</defs>
</svg>
