<svg width="41" height="36" viewBox="0 0 41 36" fill="none" xmlns="http://www.w3.org/2000/svg">
<path d="M3.04615 30.854L4.82306 33.9233C5.19232 34.5694 5.72306 35.0771 6.34615 35.4463L12.6923 24.4617H0C0 25.1771 0.184616 25.8925 0.553846 26.5386L3.04615 30.854Z" fill="#0066DA"/>
<path d="M20.1461 11.5387L13.8 0.554077C13.1769 0.923308 12.6462 1.431 12.2769 2.07715L0.553846 22.3849C0.191406 23.0171 0.000482569 23.733 0 24.4618H12.6923L20.1461 11.5387Z" fill="#00AC47"/>
<path d="M33.9457 35.4463C34.5688 35.0771 35.0996 34.5694 35.4688 33.9232L36.2073 32.654L39.7382 26.5386C40.1072 25.8925 40.2918 25.1771 40.2918 24.4617H27.5986L30.2996 29.7694L33.9457 35.4463Z" fill="#EA4335"/>
<path d="M20.146 11.5385L26.4921 0.553846C25.8691 0.184616 25.1537 0 24.4152 0H15.8768C15.1383 0 14.4229 0.207692 13.7998 0.553846L20.146 11.5385Z" fill="#00832D"/>
<path d="M27.6005 24.4617H12.6928L6.34668 35.4463C6.96977 35.8155 7.68516 36.0001 8.42359 36.0001H31.8697C32.6082 36.0001 33.3236 35.7925 33.9467 35.4463L27.6005 24.4617Z" fill="#2684FC"/>
<path d="M33.8763 12.231L28.0147 2.07715C27.6455 1.431 27.1147 0.923308 26.4917 0.554077L20.1455 11.5387L27.5994 24.4618H40.2686C40.2686 23.7464 40.0839 23.031 39.7149 22.3849L33.8763 12.231Z" fill="#FFBA00"/>
</svg>
