<svg width="26" height="39" viewBox="0 0 26 39" fill="none" xmlns="http://www.w3.org/2000/svg">
<path d="M13 19.5C13 17.7761 13.6848 16.1228 14.9038 14.9038C16.1228 13.6848 17.7761 13 19.5 13C21.2239 13 22.8772 13.6848 24.0962 14.9038C25.3152 16.1228 26 17.7761 26 19.5C26 21.2239 25.3152 22.8772 24.0962 24.0962C22.8772 25.3152 21.2239 26 19.5 26C17.7761 26 16.1228 25.3152 14.9038 24.0962C13.6848 22.8772 13 21.2239 13 19.5Z" fill="#1ABCFE"/>
<path d="M0 32.5C0 30.7761 0.68482 29.1228 1.90381 27.9038C3.12279 26.6848 4.77609 26 6.5 26H13V32.5C13 34.2239 12.3152 35.8772 11.0962 37.0962C9.87721 38.3152 8.22391 39 6.5 39C4.77609 39 3.12279 38.3152 1.90381 37.0962C0.68482 35.8772 0 34.2239 0 32.5Z" fill="#0ACF83"/>
<path d="M13 0V13L19.5 13C21.2239 13 22.8772 12.3152 24.0962 11.0962C25.3152 9.87721 26 8.22391 26 6.5C26 4.77609 25.3152 3.12279 24.0962 1.90381C22.8772 0.684819 21.2239 0 19.5 0H13Z" fill="#FF7262"/>
<path d="M0 6.5C0 8.22391 0.68482 9.87721 1.90381 11.0962C3.12279 12.3152 4.77609 13 6.5 13H13V0H6.5C4.77609 0 3.12279 0.684819 1.90381 1.90381C0.68482 3.12279 0 4.77609 0 6.5Z" fill="#F24E1E"/>
<path d="M0 19.5C0 21.2239 0.68482 22.8772 1.90381 24.0962C3.12279 25.3152 4.77609 26 6.5 26H13L13 13H6.5C4.77609 13 3.12279 13.6848 1.90381 14.9038C0.68482 16.1228 0 17.7761 0 19.5Z" fill="#A259FF"/>
</svg>
