<svg width="80" height="40" viewBox="0 0 80 40" fill="none" xmlns="http://www.w3.org/2000/svg">
<path d="M5.62566 1.65882H0.468805V0.763826H11.8054V1.65882H6.64851V16H5.62566V1.65882ZM24.9055 16V9.01054H15.2949V16H14.3147V2.17024H15.2949V8.13686H24.9055V2.17024H25.8857V16H24.9055ZM31.0042 16V2.17024H31.9845V16H31.0042ZM37.7834 11.2054L35.8017 16H34.8001L40.5963 2.085H41.1716L47.0104 16H45.9236L43.9205 11.2054H37.7834ZM40.8307 3.66189C40.6176 4.30117 40.4258 4.83391 40.2553 5.2601L38.1244 10.3743H43.5796L41.47 5.2814C41.1432 4.48586 40.9301 3.94602 40.8307 3.66189ZM55.3415 2.83083C53.7646 2.83083 52.4363 3.4346 51.3567 4.64212C50.2912 5.83545 49.7585 7.30579 49.7585 9.05316C49.7585 10.8005 50.3622 12.2851 51.5698 13.5068C52.7773 14.7143 54.1979 15.3181 55.8316 15.3181C57.4795 15.3181 58.7581 15.1263 59.6673 14.7427V9.05316H60.6475V15.1902C59.5394 15.8721 57.9697 16.2131 55.9382 16.2131C53.9067 16.2131 52.1948 15.5241 50.8026 14.1461C49.4104 12.7681 48.7143 11.0775 48.7143 9.07447C48.7143 7.05718 49.3394 5.36664 50.5895 4.00284C51.8539 2.63905 53.4805 1.95715 55.4694 1.95715C57.0747 1.95715 58.6445 2.20576 60.1787 2.70298L59.923 3.51273C58.4456 3.05813 56.9184 2.83083 55.3415 2.83083ZM71.4147 16.2131C69.4401 16.2131 67.785 15.5241 66.4497 14.1461C65.1143 12.7681 64.4466 11.0846 64.4466 9.09578C64.4466 7.0927 65.1143 5.40216 66.4497 4.02415C67.785 2.64615 69.4401 1.95715 71.4147 1.95715C73.3894 1.95715 75.0444 2.64615 76.3798 4.02415C77.7152 5.40216 78.3829 7.0927 78.3829 9.09578C78.3829 11.0846 77.7152 12.7681 76.3798 14.1461C75.0444 15.5241 73.3894 16.2131 71.4147 16.2131ZM71.4147 2.83083C69.71 2.83083 68.2894 3.4346 67.1529 4.64212C66.0306 5.84965 65.4694 7.3342 65.4694 9.09578C65.4694 10.8431 66.0306 12.3206 67.1529 13.5281C68.2894 14.7214 69.71 15.3181 71.4147 15.3181C73.1337 15.3181 74.5543 14.7214 75.6766 13.5281C76.7989 12.3206 77.36 10.8431 77.36 9.09578C77.36 7.3342 76.7989 5.84965 75.6766 4.64212C74.5543 3.4346 73.1337 2.83083 71.4147 2.83083ZM10.0154 38.2116H9.44004L4.98638 27.429C4.73067 26.8324 4.52468 26.3067 4.36841 25.8521L4.15532 27.4717L2.40795 39H1.3638L3.8783 23.636H4.47496L9.22694 34.9299C9.46845 35.4555 9.66023 35.9528 9.80229 36.4216C9.84491 36.2653 10.0651 35.7752 10.4629 34.9512L15.7689 23.636H16.3443L18.667 39H17.6015L15.9394 27.429C15.8257 26.7045 15.7689 26.1576 15.7689 25.7882C15.7547 25.8024 15.7192 25.8735 15.6624 26.0013C15.6197 26.115 15.5345 26.3138 15.4066 26.598C15.293 26.8679 15.1722 27.152 15.0444 27.4503L10.0154 38.2116ZM28.7128 39.2131C26.7382 39.2131 25.0831 38.5241 23.7478 37.1461C22.4124 35.7681 21.7447 34.0846 21.7447 32.0958C21.7447 30.0927 22.4124 28.4022 23.7478 27.0242C25.0831 25.6462 26.7382 24.9571 28.7128 24.9571C30.6875 24.9571 32.3425 25.6462 33.6779 27.0242C35.0133 28.4022 35.681 30.0927 35.681 32.0958C35.681 34.0846 35.0133 35.7681 33.6779 37.1461C32.3425 38.5241 30.6875 39.2131 28.7128 39.2131ZM28.7128 25.8308C27.0081 25.8308 25.5875 26.4346 24.451 27.6421C23.3287 28.8497 22.7675 30.3342 22.7675 32.0958C22.7675 33.8431 23.3287 35.3206 24.451 36.5281C25.5875 37.7214 27.0081 38.3181 28.7128 38.3181C30.4318 38.3181 31.8524 37.7214 32.9747 36.5281C34.097 35.3206 34.6581 33.8431 34.6581 32.0958C34.6581 30.3342 34.097 28.8497 32.9747 27.6421C31.8524 26.4346 30.4318 25.8308 28.7128 25.8308ZM49.7974 37.5723C48.8598 38.6662 47.4321 39.2131 45.5142 39.2131C43.5964 39.2131 42.1687 38.6662 41.2311 37.5723C40.2935 36.4784 39.8246 34.9654 39.8246 33.0334V25.1702H40.8049V33.0334C40.8049 36.5707 42.3747 38.3394 45.5142 38.3394C48.6538 38.3394 50.2236 36.5707 50.2236 33.0334V25.1702H51.2038V33.0334C51.2038 34.9654 50.735 36.4784 49.7974 37.5723ZM56.1842 39V25.2342C57.406 25.1347 58.443 25.085 59.2954 25.085C60.6024 25.085 61.682 25.426 62.5344 26.1079C63.3868 26.7755 63.813 27.7345 63.813 28.9846C63.813 29.8228 63.5715 30.597 63.0885 31.3073C62.6054 32.0176 62.0585 32.593 61.4476 33.0334C63.1382 35.278 64.1823 36.6205 64.5801 37.0609C65.3899 37.899 66.2706 38.3749 67.2225 38.4886L67.2012 39.1492C66.4056 39.135 65.7592 39.0213 65.262 38.8082C64.7648 38.5809 64.2676 38.2045 63.7703 37.6788C63.2873 37.1532 62.2148 35.7397 60.5526 33.4383C59.4019 33.4383 58.2725 33.4027 57.1645 33.3317V39H56.1842ZM60.0199 32.6285C60.5739 32.6285 61.1706 32.2591 61.8099 31.5204C62.4492 30.7817 62.7688 29.9222 62.7688 28.942C62.7688 27.9618 62.435 27.2159 61.7673 26.7045C61.0996 26.1931 60.233 25.9374 59.1675 25.9374C58.5993 25.9374 57.9316 25.9658 57.1645 26.0226V32.522C58.1873 32.593 59.1391 32.6285 60.0199 32.6285ZM70.3509 34.2054L68.3692 39H67.3676L73.1638 25.085H73.7391L79.5779 39H78.4911L76.488 34.2054H70.3509ZM73.3982 26.6619C73.1851 27.3012 72.9933 27.8339 72.8228 28.2601L70.6919 33.3743H76.1471L74.0374 28.2814C73.7107 27.4859 73.4976 26.946 73.3982 26.6619Z" fill="black"/>
</svg>
